<svg width="68" height="68" viewBox="0 0 68 68" fill="none" xmlns="http://www.w3.org/2000/svg">
<g clip-path="url(#clip0_128_1424)">
<path d="M45.6654 14.6244C50.5 14.6244 54.433 18.5574 54.433 23.392C54.4329 26.2187 53.087 28.7352 51.0043 30.3392V37.9906C51.0041 38.3691 50.6967 38.6761 50.3177 38.6761C49.9389 38.6761 49.6324 38.3691 49.6322 37.9906V31.2103C48.7181 31.6754 47.7333 31.9729 46.7113 32.0941C46.7125 32.1159 46.7162 32.1381 46.7162 32.1605V34.3939C46.7162 35.1506 46.1008 35.7658 45.3441 35.766H43.1097C42.353 35.7659 41.7377 35.1507 41.7377 34.3939V32.1605C41.7377 31.8587 41.8357 31.5792 42.0013 31.3529C41.6878 31.2081 41.3834 31.0478 41.0912 30.8685L40.767 30.6605C39.394 29.732 38.2976 28.4245 37.6273 26.89H15.6049V51.3685C15.605 52.0605 16.1684 52.6233 16.8607 52.6234H31.2513C31.6301 52.6234 31.9369 52.9312 31.9369 53.3099C31.9367 53.6888 31.6299 53.9955 31.2513 53.9955H16.8607C15.4119 53.9954 14.2339 52.817 14.2338 51.3685V22.8197C14.2339 21.3712 15.4119 20.1928 16.8607 20.1927H18.9691V18.7875C18.9692 17.8464 19.7351 17.0814 20.6761 17.0814H20.7504C21.6916 17.0816 22.4573 17.8465 22.4574 18.7875V20.1927H23.6644V18.7875C23.6646 17.8464 24.4304 17.0814 25.3715 17.0814H25.4457C26.3866 17.0816 27.1516 17.8465 27.1517 18.7875V20.1927H37.5043C38.7854 16.9362 41.9592 14.6245 45.6654 14.6244ZM43.1088 32.1605V34.3939L43.1097 34.3949H45.3441V32.1595H43.1097L43.1088 32.1605ZM45.6654 15.9955C41.5818 15.9957 38.2699 19.3203 38.2699 23.392C38.2699 27.4564 41.5749 30.7873 45.6654 30.7875C49.7801 30.7875 53.0619 27.4343 53.0619 23.392C53.0619 19.3139 49.7432 15.9955 45.6654 15.9955ZM16.8607 21.5648C16.1684 21.5649 15.605 22.1278 15.6049 22.8197V25.5179H37.1586C36.8393 24.2367 36.8143 22.8664 37.0902 21.5648H27.1517V22.3705C27.1517 23.3115 26.3867 24.0774 25.4457 24.0775C24.3559 24.0775 23.6644 23.2628 23.6644 22.3705V21.5648H22.4574V22.3705C22.4574 23.253 21.7742 24.0775 20.6761 24.0775C19.735 24.0775 18.9691 23.3117 18.9691 22.3705V21.5648H16.8607ZM20.6761 18.4525C20.4915 18.4525 20.3413 18.603 20.3412 18.7875V22.3344C20.3415 22.5389 20.5076 22.7059 20.7123 22.7064H20.7133L20.7885 22.6986C20.9574 22.6635 21.0851 22.5133 21.0853 22.3344V18.7875C21.0852 18.6031 20.9348 18.4527 20.7504 18.4525H20.6761ZM25.3715 18.4525C25.1869 18.4525 25.0366 18.6029 25.0365 18.7875V22.3344C25.0368 22.5389 25.2029 22.7058 25.4076 22.7064H25.4086C25.6131 22.7059 25.7804 22.5389 25.7806 22.3344V18.7875C25.7805 18.603 25.6294 18.4525 25.4447 18.4525H25.3715Z" fill="#0247E2" stroke="#0247E2" stroke-width="0.2"/>
<path d="M46.774 18.7101C47.2754 18.7101 47.6831 19.1176 47.6832 19.6193V21.3741H49.438C49.9397 21.3741 50.3471 21.7817 50.3472 22.2833V24.5001C50.3472 25.0017 49.9398 25.4103 49.438 25.4103H47.6832V27.1642C47.6832 27.6659 47.2754 28.0734 46.774 28.0734H44.5572C44.0556 28.0733 43.648 27.6658 43.648 27.1642V25.4103H41.8931C41.3914 25.4102 40.984 25.0017 40.9839 24.5001V22.2833C40.984 21.7817 41.3915 21.3742 41.8931 21.3741H43.648V19.6193C43.648 19.1177 44.0556 18.7102 44.5572 18.7101H46.774ZM45.0201 21.8361C45.0201 22.3378 44.6113 22.7462 44.1099 22.7462H42.355V24.0382H44.1099C44.6112 24.0382 45.0199 24.4458 45.0201 24.9474V26.7023H46.3121V24.9474C46.3122 24.4459 46.7198 24.0384 47.2213 24.0382H48.9761V22.7462H47.2213C46.7197 22.7461 46.3121 22.3374 46.3121 21.8361V20.0812H45.0201V21.8361Z" fill="#0247E2" stroke="#0247E2" stroke-width="0.2"/>
<path d="M22.1276 30.7881C22.8843 30.7883 23.4996 31.4035 23.4997 32.1602V34.3945C23.4995 35.1511 22.8842 35.7664 22.1276 35.7666H19.8932C19.1366 35.7665 18.5214 35.1512 18.5212 34.3945V32.1602C18.5212 31.4034 19.1365 30.7882 19.8932 30.7881H22.1276ZM19.8923 32.1602V34.3945H22.1276V32.1592H19.8932L19.8923 32.1602Z" fill="#0247E2" stroke="#0247E2" stroke-width="0.2"/>
<path d="M27.9317 30.7881C28.6884 30.7883 29.3037 31.4035 29.3038 32.1602V34.3945C29.3036 35.1511 28.6882 35.7664 27.9317 35.7666H25.6973C24.9407 35.7665 24.3255 35.1512 24.3253 34.3945V32.1602C24.3253 31.4034 24.9406 30.7882 25.6973 30.7881H27.9317ZM25.6964 32.1602V34.3945H27.9317V32.1592H25.6973L25.6964 32.1602Z" fill="#0247E2" stroke="#0247E2" stroke-width="0.2"/>
<path d="M33.7359 30.7881C34.4925 30.7883 35.1079 31.4035 35.108 32.1602V34.3945C35.1078 35.1511 34.4924 35.7664 33.7359 35.7666H31.5015C30.7449 35.7665 30.1297 35.1512 30.1295 34.3945V32.1602C30.1295 31.4034 30.7448 30.7882 31.5015 30.7881H33.7359ZM31.5005 32.1602V34.3945H33.7359V32.1592H31.5015L31.5005 32.1602Z" fill="#0247E2" stroke="#0247E2" stroke-width="0.2"/>
<path d="M39.54 30.7881C40.2967 30.7883 40.912 31.4035 40.9121 32.1602V34.3945C40.9119 35.1511 40.2966 35.7664 39.54 35.7666H37.3057C36.549 35.7665 35.9338 35.1512 35.9336 34.3945V32.1602C35.9337 31.4034 36.5489 30.7882 37.3057 30.7881H39.54ZM37.3047 32.1602V34.3945H39.54V32.1592H37.3057L37.3047 32.1602Z" fill="#0247E2" stroke="#0247E2" stroke-width="0.2"/>
<path d="M22.1276 36.8684C22.8843 36.8686 23.4996 37.4839 23.4997 38.2405V40.4749C23.4995 41.2314 22.8842 41.8467 22.1276 41.8469H19.8932C19.1366 41.8469 18.5214 41.2315 18.5212 40.4749V38.2405C18.5212 37.4837 19.1365 36.8685 19.8932 36.8684H22.1276ZM19.8923 38.2405V40.4749H22.1276V38.2395H19.8932L19.8923 38.2405Z" fill="#0247E2" stroke="#0247E2" stroke-width="0.2"/>
<path d="M27.9317 36.8684C28.6884 36.8686 29.3037 37.4839 29.3038 38.2405V40.4749C29.3036 41.2314 28.6882 41.8467 27.9317 41.8469H25.6973C24.9407 41.8469 24.3255 41.2315 24.3253 40.4749V38.2405C24.3253 37.4837 24.9406 36.8685 25.6973 36.8684H27.9317ZM25.6964 38.2405V40.4749H27.9317V38.2395H25.6973L25.6964 38.2405Z" fill="#0247E2" stroke="#0247E2" stroke-width="0.2"/>
<path d="M33.7359 36.8684C34.4925 36.8686 35.1079 37.4838 35.108 38.2405V40.4749C35.1078 41.2314 34.4924 41.8467 33.7359 41.8469H31.5015C30.7449 41.8469 30.1297 41.2315 30.1295 40.4749V38.2405C30.1295 37.4837 30.7448 36.8685 31.5015 36.8684H33.7359ZM31.5005 38.2405V40.4749H33.7359V38.2395H31.5015L31.5005 38.2405Z" fill="#0247E2" stroke="#0247E2" stroke-width="0.2"/>
<path d="M39.54 36.8684C40.2967 36.8686 40.912 37.4839 40.9121 38.2405V40.4749C40.9119 41.2314 40.2966 41.8467 39.54 41.8469H37.3057C36.549 41.8469 35.9338 41.2315 35.9336 40.4749V38.2405C35.9337 37.4837 36.5489 36.8685 37.3057 36.8684H39.54ZM37.3047 38.2405V40.4749H39.54V38.2395H37.3057L37.3047 38.2405Z" fill="#0247E2" stroke="#0247E2" stroke-width="0.2"/>
<path d="M45.3441 36.8684C46.1008 36.8686 46.7161 37.4839 46.7162 38.2405V40.4749C46.716 41.2314 46.1007 41.8467 45.3441 41.8469H43.1097C42.3531 41.8469 41.7379 41.2315 41.7377 40.4749V38.2405C41.7377 37.4837 42.353 36.8685 43.1097 36.8684H45.3441ZM43.1088 38.2405V40.4749H45.3441V38.2395H43.1097L43.1088 38.2405Z" fill="#0247E2" stroke="#0247E2" stroke-width="0.2"/>
<path d="M22.1276 42.9487C22.8843 42.9489 23.4996 43.5642 23.4997 44.3208V46.5552C23.4995 47.3117 22.8842 47.927 22.1276 47.9272H19.8932C19.1366 47.9272 18.5214 47.3118 18.5212 46.5552V44.3208C18.5212 43.5641 19.1365 42.9488 19.8932 42.9487H22.1276ZM19.8923 44.3208V46.5552H22.1276V44.3198H19.8932L19.8923 44.3208Z" fill="#0247E2" stroke="#0247E2" stroke-width="0.2"/>
<path d="M27.9317 42.9487C28.6884 42.9489 29.3037 43.5642 29.3038 44.3208V46.5552C29.3036 47.3117 28.6883 47.927 27.9317 47.9272H25.6973C24.9407 47.9272 24.3255 47.3118 24.3253 46.5552V44.3208C24.3253 43.5641 24.9406 42.9488 25.6973 42.9487H27.9317ZM25.6964 44.3208V46.5552H27.9317V44.3198H25.6973L25.6964 44.3208Z" fill="#0247E2" stroke="#0247E2" stroke-width="0.2"/>
<path d="M33.7359 42.9487C34.4925 42.9489 35.1079 43.5642 35.108 44.3208V46.5552C35.1078 47.3117 34.4924 47.927 33.7359 47.9272H31.5015C30.7449 47.9272 30.1297 47.3118 30.1295 46.5552V44.3208C30.1295 43.5641 30.7448 42.9488 31.5015 42.9487H33.7359ZM31.5005 44.3208V46.5552H33.7359V44.3198H31.5015L31.5005 44.3208Z" fill="#0247E2" stroke="#0247E2" stroke-width="0.2"/>
<path d="M39.54 42.9487C40.2967 42.9489 40.912 43.5642 40.9121 44.3208V46.5552C40.9119 47.3117 40.2966 47.927 39.54 47.9272H37.3057C36.549 47.9272 35.9338 47.3118 35.9336 46.5552V44.3208C35.9337 43.5641 36.5489 42.9488 37.3057 42.9487H39.54ZM37.3047 44.3208V46.5552H39.54V44.3198H37.3057L37.3047 44.3208Z" fill="#0247E2" stroke="#0247E2" stroke-width="0.2"/>
<path d="M45.3441 42.9487C46.1008 42.9489 46.7161 43.5642 46.7162 44.3208V46.5552C46.716 47.3117 46.1007 47.927 45.3441 47.9272H43.1097C42.3531 47.9272 41.7379 47.3118 41.7377 46.5552V44.3208C41.7377 43.5641 42.353 42.9488 43.1097 42.9487H45.3441ZM43.1088 44.3208V46.5552H45.3441V44.3198H43.1097L43.1088 44.3208Z" fill="#0247E2" stroke="#0247E2" stroke-width="0.2"/>
<path d="M50.3177 40.0391C50.6968 40.0391 51.0033 40.3456 51.0033 40.7246V51.3682C51.0033 52.8168 49.8253 53.9951 48.3763 53.9951H33.9857C33.6067 53.9951 33.3002 53.6885 33.3002 53.3096C33.3002 52.9309 33.6067 52.623 33.9857 52.623H48.3763C49.0685 52.623 49.6322 52.0603 49.6322 51.3682V40.7246C49.6322 40.3456 49.9388 40.0391 50.3177 40.0391Z" fill="#0247E2" stroke="#0247E2" stroke-width="0.2"/>
</g>
<defs>
<clipPath id="clip0_128_1424">
<rect width="40" height="40" fill="white" transform="translate(14.3334 14.3334)"/>
</clipPath>
</defs>
</svg>
