<svg width="68" height="68" viewBox="0 0 68 68" fill="none" xmlns="http://www.w3.org/2000/svg">
<path d="M38.9355 46.3535V47.54C38.9355 49.5234 39.5224 51.4629 40.623 53.1143C40.6797 53.1992 40.706 53.293 40.706 53.3828C40.706 53.6367 40.5039 53.873 40.2168 53.873H30.3222C29.9326 53.873 29.7002 53.4385 29.916 53.1143C30.4668 52.2891 30.8887 51.3906 31.1728 50.4512C31.457 49.5127 31.6035 48.5312 31.6035 47.54V46.3535" stroke="#0247E2" stroke-width="1.46484" stroke-miterlimit="10" stroke-linecap="round" stroke-linejoin="round"/>
<path d="M12.6621 25.8457V17.0566C12.6621 15.4385 13.9736 14.127 15.5918 14.127H52.4082C54.0264 14.127 55.3379 15.4385 55.3379 17.0566V25.8457" stroke="#0247E2" stroke-width="1.46484" stroke-miterlimit="10" stroke-linecap="round" stroke-linejoin="round"/>
<path d="M42.7764 40.4941H28.1533" stroke="#0247E2" stroke-width="1.46484" stroke-miterlimit="10" stroke-linecap="round" stroke-linejoin="round"/>
<path d="M42.7764 40.4941H28.1533" stroke="#0247E2" stroke-width="1.46484" stroke-miterlimit="10" stroke-linecap="round" stroke-linejoin="round"/>
<path d="M15.5918 25.8457V17.4473C15.5918 17.2314 15.7666 17.0566 15.9824 17.0566H52.0176C52.2334 17.0566 52.4082 17.2314 52.4082 17.4473V25.8457" stroke="#0247E2" stroke-width="1.46484" stroke-miterlimit="10" stroke-linecap="round" stroke-linejoin="round"/>
<path d="M42.7764 40.4941H28.1533" stroke="#0247E2" stroke-width="1.46484" stroke-miterlimit="10" stroke-linecap="round" stroke-linejoin="round"/>
<path d="M42.7764 46.3535H28.1533" stroke="#0247E2" stroke-width="1.46484" stroke-miterlimit="10" stroke-linecap="round" stroke-linejoin="round"/>
<path d="M28.1533 35.4922H41.6689C42.1074 35.4922 42.502 35.3047 42.7764 35.0059" stroke="#0247E2" stroke-width="1.46484" stroke-miterlimit="10" stroke-linecap="round" stroke-linejoin="round"/>
<path d="M24.8262 25.8457V21.4902C24.8262 20.6602 25.5 19.9863 26.3311 19.9863H41.6689C42.5 19.9863 43.1738 20.6602 43.1738 21.4902V22.7119" stroke="#0247E2" stroke-width="1.46484" stroke-miterlimit="10" stroke-linecap="round" stroke-linejoin="round"/>
<path d="M35.1953 32.085L37.3184 29.3359C37.5977 28.9746 38.1397 28.9746 38.4199 29.3359L42.7871 34.9912" stroke="#0247E2" stroke-width="1.46484" stroke-miterlimit="10" stroke-linecap="round" stroke-linejoin="round"/>
<path d="M37.9424 35.4922L31.9258 28.0293C31.6465 27.6826 31.1221 27.6826 30.8428 28.0293L28.1533 31.3652" stroke="#0247E2" stroke-width="1.46484" stroke-miterlimit="10" stroke-linecap="round" stroke-linejoin="round"/>
<path d="M35.1933 26.3978C36.1302 26.3978 36.8897 25.6308 36.8897 24.6846C36.8897 23.7385 36.1302 22.9714 35.1933 22.9714C34.2564 22.9714 33.4969 23.7385 33.4969 24.6846C33.4969 25.6308 34.2564 26.3978 35.1933 26.3978Z" stroke="#0247E2" stroke-width="1.46484" stroke-miterlimit="10" stroke-linecap="round" stroke-linejoin="round"/>
<path d="M56.3145 53.873H44.7298C43.6511 53.873 42.7767 52.9986 42.7767 51.9199V27.7988C42.7767 26.7201 43.6511 25.8457 44.7298 25.8457H56.3145C57.3932 25.8457 58.2676 26.7201 58.2676 27.7988V51.9199C58.2676 52.9986 57.3932 53.873 56.3145 53.873Z" stroke="#0247E2" stroke-width="1.46484" stroke-miterlimit="10" stroke-linecap="round" stroke-linejoin="round"/>
<path d="M52.4424 28.873H48.6019C48.2243 28.873 47.9183 28.567 47.9183 28.1895V25.8457H53.126V28.1895C53.126 28.567 52.8199 28.873 52.4424 28.873Z" stroke="#0247E2" stroke-width="1.46484" stroke-miterlimit="10" stroke-linecap="round" stroke-linejoin="round"/>
<path d="M54.6512 44.3935H46.3932C45.9459 44.3935 45.5833 44.0309 45.5833 43.5836V36.8553C45.5833 36.408 45.9459 36.0454 46.3932 36.0454H54.6512C55.0984 36.0454 55.461 36.408 55.461 36.8553V43.5836C55.4609 44.0309 55.0984 44.3935 54.6512 44.3935Z" stroke="#0247E2" stroke-width="1.46484" stroke-miterlimit="10" stroke-linecap="round" stroke-linejoin="round"/>
<path d="M51.166 42.5596L52.3086 41.0791C52.459 40.8848 52.751 40.8848 52.9014 41.0791L55.2529 44.124" stroke="#0247E2" stroke-width="1.46484" stroke-miterlimit="10" stroke-linecap="round" stroke-linejoin="round"/>
<path d="M52.6446 44.3935L49.4056 40.3757C49.2551 40.1891 48.9727 40.1891 48.8223 40.3757L45.7961 44.1294" stroke="#0247E2" stroke-width="1.46484" stroke-miterlimit="10" stroke-linecap="round" stroke-linejoin="round"/>
<circle cx="51.166" cy="38.541" r="0.732422" fill="#0247E2"/>
<path d="M45.5833 47.3231H55.461" stroke="#0247E2" stroke-width="1.46484" stroke-miterlimit="10" stroke-linecap="round" stroke-linejoin="round"/>
<path d="M48.513 50.2528H52.5313" stroke="#0247E2" stroke-width="1.46484" stroke-miterlimit="10" stroke-linecap="round" stroke-linejoin="round"/>
<path d="M9.73242 43.4238V28.7754C9.73242 27.1573 11.044 25.8457 12.6621 25.8457H25.2233C26.8414 25.8457 28.153 27.1573 28.153 28.7754V50.9434C28.153 52.5614 26.8414 53.873 25.2233 53.873H12.6621C11.044 53.873 9.73242 52.5614 9.73242 50.9434V46.8418" stroke="#0247E2" stroke-width="1.46484" stroke-miterlimit="10" stroke-linecap="round" stroke-linejoin="round"/>
<path d="M23.0718 41.1038H14.8136C14.3664 41.1038 14.0038 40.7412 14.0038 40.2939V33.5656C14.0038 33.1183 14.3664 32.7557 14.8136 32.7557H23.0717C23.5189 32.7557 23.8815 33.1183 23.8815 33.5656V40.2939C23.8815 40.7412 23.519 41.1038 23.0718 41.1038Z" stroke="#0247E2" stroke-width="1.46484" stroke-miterlimit="10" stroke-linecap="round" stroke-linejoin="round"/>
<path d="M19.5869 39.2695L20.7295 37.79C20.8799 37.5947 21.1719 37.5947 21.3223 37.79L23.6738 40.834" stroke="#0247E2" stroke-width="1.46484" stroke-miterlimit="10" stroke-linecap="round" stroke-linejoin="round"/>
<path d="M21.0652 41.1037L17.8261 37.0859C17.6756 36.8993 17.3933 36.8993 17.2428 37.0859L14.2167 40.8395" stroke="#0247E2" stroke-width="1.46484" stroke-miterlimit="10" stroke-linecap="round" stroke-linejoin="round"/>
<circle cx="19.5593" cy="35.2512" r="0.732422" fill="#0247E2"/>
<path d="M14.0039 44.0333H23.8815" stroke="#0247E2" stroke-width="1.46484" stroke-miterlimit="10" stroke-linecap="round" stroke-linejoin="round"/>
<path d="M16.9336 46.963H20.9519" stroke="#0247E2" stroke-width="1.46484" stroke-miterlimit="10" stroke-linecap="round" stroke-linejoin="round"/>
<circle cx="18.9427" cy="28.7754" r="0.732422" fill="#0247E2"/>
</svg>
