<svg width="68" height="68" viewBox="0 0 68 68" fill="none" xmlns="http://www.w3.org/2000/svg">
<path d="M43.7535 12.15C50.4264 12.1502 55.85 17.5738 55.8502 24.2467C55.8502 30.9198 50.4265 36.3442 43.7535 36.3444C42.9061 36.3444 42.085 36.2592 41.3082 36.0885L41.1255 36.0485V39.5172C41.1255 43.1792 42.4643 46.6534 44.9107 49.3571L45.1509 49.6158H45.1519C45.4464 49.9254 45.5231 50.3796 45.357 50.776C45.1812 51.1657 44.7919 51.4244 44.3677 51.4244H34.1832L34.1568 51.5416C33.6086 54.0042 31.416 55.8502 28.7945 55.8502C26.1818 55.8502 23.9892 54.0043 23.441 51.5416L23.4146 51.4244H13.23C12.8492 51.4244 12.5054 51.232 12.314 50.9205L12.2418 50.7799L12.2408 50.777L12.1871 50.6276C12.104 50.323 12.1633 49.9984 12.3453 49.7399L12.4459 49.6158H12.4468C15.0368 46.8771 16.4722 43.2888 16.4722 39.5172V31.9996C16.4722 26.3525 20.2967 21.5933 25.4918 20.1383L25.6744 20.0875L25.5826 19.9215C25.2915 19.3976 25.1246 18.7899 25.1246 18.149C25.1247 16.1273 26.7727 14.4792 28.7945 14.4791C30.8163 14.4791 32.4643 16.1273 32.4644 18.149C32.4644 18.7899 32.2975 19.3976 32.0064 19.9215L31.9244 20.0699L32.0826 20.1334C32.1405 20.1566 32.1973 20.1681 32.2388 20.1764L32.3638 20.2008L32.4088 20.0807C34.1116 15.4601 38.544 12.15 43.7535 12.15ZM25.6939 51.6412C26.2013 52.855 27.3889 53.7076 28.7857 53.7076C30.1828 53.7076 31.3789 52.8461 31.8863 51.6412L31.9742 51.4332H25.607L25.6939 51.6412ZM43.7535 14.2926C38.2659 14.2926 33.7986 18.7592 33.7984 24.2467C33.7984 29.7344 38.2658 34.2018 43.7535 34.2018C49.241 34.2016 53.7076 29.7342 53.7076 24.2467C53.7074 18.7593 49.2408 14.2928 43.7535 14.2926ZM28.7945 16.6305C27.9495 16.6305 27.2672 17.3129 27.2672 18.1578C27.2672 19.0029 27.9495 19.6851 28.7945 19.6852C29.6303 19.6852 30.3218 19.0035 30.3218 18.1578C30.3217 17.3129 29.6395 16.6305 28.7945 16.6305ZM38.9664 35.358L38.8765 35.318C34.6323 33.4354 31.6558 29.1912 31.6558 24.2555C31.6558 23.6329 31.7157 23.0259 31.8101 22.4254L31.8297 22.2975L31.7056 22.2584C30.7639 21.968 29.7874 21.8278 28.7945 21.8278C23.1856 21.8278 18.6236 26.3907 18.6236 31.9996V39.5172C18.6236 42.9601 17.5845 46.2653 15.6617 49.0465L15.4986 49.2819H42.0806L41.9195 49.0465C40.0051 46.2651 38.9664 42.9602 38.9664 39.526V35.358Z" fill="#0247E2" stroke="#F5F8FF" stroke-width="0.3"/>
<path d="M43.7535 16.7406C44.3461 16.7408 44.8248 17.2193 44.8248 17.8119V23.1761H47.7545C48.3472 23.1761 48.8257 23.6547 48.8257 24.2474C48.8255 24.84 48.3471 25.3187 47.7545 25.3187H43.7535C43.1609 25.3187 42.6824 24.84 42.6822 24.2474V17.8119C42.6822 17.2191 43.1607 16.7406 43.7535 16.7406Z" fill="#0247E2" stroke="#F5F8FF" stroke-width="0.3"/>
</svg>
