<svg width="68" height="68" viewBox="0 0 68 68" fill="none" xmlns="http://www.w3.org/2000/svg">
<g clip-path="url(#clip0_128_1419)">
<mask id="mask0_128_1419" style="mask-type:luminance" maskUnits="userSpaceOnUse" x="9" y="9" width="50" height="50">
<path d="M59 9H9V59H59V9Z" fill="white"/>
</mask>
<g mask="url(#mask0_128_1419)">
<mask id="mask1_128_1419" style="mask-type:luminance" maskUnits="userSpaceOnUse" x="9" y="9" width="50" height="50">
<path d="M8.99997 9H59V59H8.99997V9Z" fill="white"/>
</mask>
<g mask="url(#mask1_128_1419)">
<path d="M20.3088 44.6146H12.7594C11.0877 44.6146 9.7323 43.2593 9.7323 41.5875V18.8263C9.7323 17.1546 11.0877 15.7992 12.7594 15.7992H49.1702C50.842 15.7992 52.1973 17.1546 52.1973 18.8263V37.1796" stroke="#0247E2" stroke-width="1.46484" stroke-miterlimit="10" stroke-linecap="round" stroke-linejoin="round"/>
<path d="M43.0945 44.6146H23.501" stroke="#0247E2" stroke-width="1.46484" stroke-miterlimit="10" stroke-linecap="round" stroke-linejoin="round"/>
<path d="M25.046 38.1759H26.8226C27.5581 38.1759 28.2633 37.8838 28.7833 37.3639C29.9627 36.1844 29.8413 34.2383 28.5248 33.2144L28.4684 33.1706C27.5073 32.4232 26.9451 31.2739 26.9451 30.0563V28.7815C26.9451 26.837 25.3688 25.2606 23.4243 25.2606H20.1967C18.2522 25.2606 16.6759 26.837 16.6759 28.7815V30.1126C16.6759 31.2981 16.1427 32.4207 15.224 33.1699C13.9296 34.2256 13.831 36.1688 15.0122 37.3499C15.5411 37.8788 16.2585 38.1759 17.0064 38.1759H18.7633" stroke="#0247E2" stroke-width="1.46484" stroke-miterlimit="10" stroke-linecap="round" stroke-linejoin="round"/>
<path d="M20.4983 34.9796C20.4983 35.6235 21.0203 36.1454 21.6641 36.1454H22.1452C22.7891 36.1454 23.3112 35.6235 23.3112 34.9796" stroke="#0247E2" stroke-width="1.46484" stroke-miterlimit="10" stroke-linecap="round" stroke-linejoin="round"/>
<path d="M26.4462 31.986V35.2975C26.4462 37.3194 24.8073 38.9584 22.7855 38.9584H21.0239C19.002 38.9584 17.363 37.3194 17.363 35.2975V31.986H19.1757C20.4542 31.986 21.5703 31.1202 21.8881 29.8818C22.2061 31.1202 23.3222 31.986 24.6007 31.986H26.4462Z" stroke="#0247E2" stroke-width="1.46484" stroke-miterlimit="10" stroke-linecap="round" stroke-linejoin="round"/>
<path d="M52.1974 20.3488H42.4186" stroke="#0247E2" stroke-width="1.46484" stroke-miterlimit="10" stroke-linecap="round" stroke-linejoin="round"/>
<path d="M39.2275 20.3488H9.73239" stroke="#0247E2" stroke-width="1.46484" stroke-miterlimit="10" stroke-linecap="round" stroke-linejoin="round"/>
<path d="M47.6479 27.9318H33.9984V24.8985H47.6479V27.9318Z" stroke="#0247E2" stroke-width="1.46484" stroke-miterlimit="10" stroke-linecap="round" stroke-linejoin="round"/>
<path d="M33.9984 30.9628H46.1312" stroke="#0247E2" stroke-width="1.46484" stroke-miterlimit="10" stroke-linecap="round" stroke-linejoin="round"/>
<path d="M33.9984 33.9938H43.0981" stroke="#0247E2" stroke-width="1.46484" stroke-miterlimit="10" stroke-linecap="round" stroke-linejoin="round"/>
<path d="M33.9984 37.0248H40.0648" stroke="#0247E2" stroke-width="1.46484" stroke-miterlimit="10" stroke-linecap="round" stroke-linejoin="round"/>
<path d="M51.0713 41.4393L51.8378 42.9923C51.9012 43.1208 52.0236 43.2098 52.1653 43.2304L53.8794 43.4794C54.2361 43.5313 54.3787 43.9699 54.1205 44.2215L52.8802 45.4305C52.7777 45.5305 52.7308 45.6745 52.7551 45.8156L53.0478 47.5226C53.1088 47.8781 52.7358 48.1491 52.4166 47.9813L50.8836 47.1753C50.7568 47.1087 50.6053 47.1087 50.4787 47.1753L48.9456 47.9813C48.6264 48.1491 48.2534 47.8781 48.3144 47.5226L48.6072 45.8156C48.6313 45.6745 48.5845 45.5305 48.4819 45.4305L47.2418 44.2215C46.9836 43.9699 47.1261 43.5313 47.4829 43.4794L49.1969 43.2304C49.3386 43.2098 49.4611 43.1208 49.5244 42.9923L50.291 41.4393C50.4506 41.1159 50.9116 41.1159 51.0713 41.4393Z" stroke="#0247E2" stroke-width="1.46484" stroke-miterlimit="10" stroke-linecap="round" stroke-linejoin="round"/>
<path d="M58.0983 46.2103C57.366 49.634 54.3232 52.2012 50.6808 52.2012C46.4917 52.2012 43.0944 48.8039 43.0944 44.6146C43.0944 40.4245 46.4917 37.0283 50.6808 37.0283C54.3242 37.0283 57.367 39.5955 58.0983 43.019" stroke="#0247E2" stroke-width="1.46484" stroke-miterlimit="10" stroke-linecap="round" stroke-linejoin="round"/>
</g>
</g>
</g>
<defs>
<clipPath id="clip0_128_1419">
<rect width="50" height="50" fill="white" transform="translate(9 9)"/>
</clipPath>
</defs>
</svg>
