<svg width="68" height="68" viewBox="0 0 68 68" fill="none" xmlns="http://www.w3.org/2000/svg">
<mask id="mask0_128_1420" style="mask-type:luminance" maskUnits="userSpaceOnUse" x="4" y="4" width="60" height="60">
<path d="M4 4H64V64H4V4Z" fill="white"/>
</mask>
<g mask="url(#mask0_128_1420)">
<path d="M41.1028 42.8359H44.8727C46.5708 42.8359 47.9464 41.459 47.9464 39.7609V39.168C47.9464 38.7777 47.6301 38.4613 47.2399 38.4613H32.6933" stroke="#0247E2" stroke-width="1.75781" stroke-miterlimit="10" stroke-linecap="round" stroke-linejoin="round"/>
<path d="M34 43.3821H34.6973C34.8344 43.3821 34.9692 43.4231 35.0828 43.5005L39.2172 46.3235C40.4675 47.1778 42.175 46.8613 43.0364 45.6157L43.2508 45.3063C43.4172 45.0648 43.3726 44.7356 43.1477 44.5468L36.278 38.7977C36.0191 38.5798 35.691 38.4614 35.3535 38.4614H26.514" stroke="#0247E2" stroke-width="1.75781" stroke-miterlimit="10" stroke-linecap="round" stroke-linejoin="round"/>
<path d="M15.3614 38.4613H27.5289C27.8244 38.4613 28.1102 38.5632 28.3387 38.7496L34.4841 43.7781C34.6328 43.9 34.7348 44.0687 34.7724 44.2574L35.997 50.5304C36.0744 50.916 35.8154 51.2886 35.4274 51.3507L34.6095 51.4809C33.3543 51.68 32.1544 50.8867 31.8462 49.6539L31.2123 47.1636C31.1642 46.9714 31.0387 46.8074 30.8654 46.7101L27.9697 45.0941C27.6742 44.93 27.3075 44.9757 27.0626 45.2089L26.3617 45.8746C25.4078 46.7816 24.1423 47.2878 22.825 47.2878H19.6809C18.1211 47.2878 16.6071 46.7839 15.3614 45.8558" stroke="#0247E2" stroke-width="1.75781" stroke-miterlimit="10" stroke-linecap="round" stroke-linejoin="round"/>
<path d="M10.8205 36.5281H14.7728C15.0981 36.5281 15.3618 36.7919 15.3618 37.1172V48.033C15.3618 48.3584 15.0981 48.6221 14.7728 48.6221H10.8205C10.4951 48.6221 10.2314 48.3584 10.2314 48.033V37.1172C10.2314 36.7919 10.4951 36.5281 10.8205 36.5281Z" stroke="#0247E2" stroke-width="1.75781" stroke-miterlimit="10" stroke-linecap="round" stroke-linejoin="round"/>
<path d="M10.2313 38.4408H4.87878" stroke="#0247E2" stroke-width="1.75781" stroke-miterlimit="10" stroke-linecap="round" stroke-linejoin="round"/>
<path d="M4.87878 46.7096H10.2313" stroke="#0247E2" stroke-width="1.75781" stroke-miterlimit="10" stroke-linecap="round" stroke-linejoin="round"/>
<path d="M43.0207 29.6133C42.4129 29.9847 41.6491 29.9847 41.0412 29.6134C40.0377 29.0004 38.8204 28.2467 37.2527 26.699C35.6231 25.09 34.836 23.7398 34.7004 22.3208C34.5784 21.0433 35.0176 19.814 35.908 18.9291C37.3291 17.5166 39.6428 17.4555 41.1189 18.8103C41.2764 18.955 41.4186 19.1091 41.5458 19.271C41.7939 19.5873 42.268 19.5873 42.5161 19.271C42.6432 19.1091 42.7855 18.955 42.943 18.8103C44.4192 17.4555 46.7329 17.5166 48.154 18.9291C49.0444 19.814 49.4835 21.0433 49.3615 22.3208C49.2259 23.7398 48.4387 25.09 46.8091 26.699C45.2421 28.2461 44.0242 29.0004 43.0207 29.6133Z" stroke="#0247E2" stroke-width="1.75781" stroke-miterlimit="10" stroke-linecap="round" stroke-linejoin="round"/>
<path d="M30.152 15.1226C28.9854 16.2371 28.0648 16.8068 27.2987 17.2748C26.807 17.5752 26.1893 17.5752 25.6975 17.2748C24.8858 16.779 23.901 16.1692 22.633 14.9173C21.3148 13.6158 20.678 12.5235 20.5684 11.3758C20.4696 10.3423 20.8248 9.34797 21.5452 8.63208C22.6948 7.48961 24.5662 7.44004 25.7603 8.5361C25.8878 8.65305 26.0028 8.77774 26.1056 8.90876C26.3064 9.16458 26.6899 9.16458 26.8907 8.90876C26.9934 8.77774 27.1084 8.65305 27.2359 8.5361C28.43 7.44004 30.3014 7.48961 31.4511 8.63208C32.1714 9.34797 32.5267 10.3423 32.4279 11.3758C32.4168 11.4919 32.4005 11.6072 32.3783 11.7223" stroke="#0247E2" stroke-width="1.75781" stroke-miterlimit="10" stroke-linecap="round" stroke-linejoin="round"/>
<path d="M51.0731 54.9238L58.7278 16.3421C58.7911 16.0233 59.1016 15.8158 59.4202 15.8791L61.6657 16.3245C62.6442 16.5189 63.2805 17.4694 63.086 18.4491L55.8684 54.8219C55.8485 54.9203 55.8215 55.0151 55.7874 55.1055" stroke="#0247E2" stroke-width="1.75781" stroke-miterlimit="10" stroke-linecap="round" stroke-linejoin="round"/>
<path d="M36.7943 54.9237H55.2957C55.7172 54.9237 56.0588 55.2653 56.0588 55.6868V57.9091C56.0588 59.2052 55.008 60.256 53.7118 60.256H17.7088C16.4125 60.256 15.3617 59.2052 15.3617 57.9091V55.6868C15.3617 55.2653 15.7034 54.9237 16.1249 54.9237H32.6928" stroke="#0247E2" stroke-width="1.75781" stroke-miterlimit="10" stroke-linecap="round" stroke-linejoin="round"/>
</g>
</svg>
